<svg width="22" height="24" viewBox="0 0 22 24" fill="none" xmlns="http://www.w3.org/2000/svg">
<g filter="url(#filter0_d_16_157)">
<path d="M10.4611 8.17064C8.1683 8.17064 6.30298 6.41653 6.30298 4.26037C6.30298 2.10427 8.1683 0.350159 10.4611 0.350159C12.7538 0.350159 14.6192 2.10427 14.6192 4.26037C14.6192 6.41653 12.7538 8.17064 10.4611 8.17064ZM10.4611 1.33817C8.78369 1.33817 7.41905 2.64905 7.41905 4.26037C7.41905 5.87168 8.78369 7.18262 10.4611 7.18262C12.1384 7.18262 13.5031 5.87168 13.5031 4.26037C13.5031 2.64905 12.1384 1.33817 10.4611 1.33817Z" fill="#00BFA6"/>
<path d="M10.4703 8.07737C8.17242 8.07737 6.30298 6.26563 6.30298 4.03865C6.30298 1.81173 8.17242 0 10.4703 0C12.7681 0 14.6376 1.81173 14.6376 4.03865C14.6376 6.26563 12.7681 8.07737 10.4703 8.07737ZM10.4703 1.02047C8.78918 1.02047 7.42152 2.37441 7.42152 4.03865C7.42152 5.70289 8.78918 7.0569 10.4703 7.0569C12.1514 7.0569 13.519 5.70289 13.519 4.03865C13.519 2.37441 12.1514 1.02047 10.4703 1.02047Z" fill="#00BFA6"/>
<path d="M14.5177 16H6.62516C5.92917 15.9993 5.2619 15.7468 4.76976 15.2978C4.27761 14.8488 4.00078 14.24 4 13.605V6.54211C4.00054 6.10739 4.19006 5.69061 4.52699 5.38321C4.86392 5.07582 5.32075 4.9029 5.79725 4.9024H15.3456C15.8221 4.9029 16.2789 5.07582 16.6159 5.38321C16.9528 5.69061 17.1423 6.10739 17.1429 6.54211V13.605C17.1421 14.24 16.8652 14.8488 16.3731 15.2978C15.881 15.7468 15.2137 15.9993 14.5177 16Z" fill="white"/>
<path d="M12.0657 9.57487C12.0659 9.32544 11.9932 9.08047 11.8551 8.86519C11.7171 8.64991 11.5186 8.47209 11.2802 8.35006C11.0417 8.22803 10.7719 8.16619 10.4986 8.17091C10.2252 8.17563 9.9582 8.24673 9.72499 8.37691C9.49178 8.50709 9.30082 8.69163 9.17178 8.91152C9.04274 9.13142 8.98028 9.37872 8.99083 9.62796C9.00139 9.8772 9.08457 10.1194 9.23182 10.3295C9.37907 10.5397 9.58507 10.7102 9.82859 10.8236V13.0189H11.2268V10.8236C11.4792 10.7062 11.6911 10.5275 11.8392 10.3071C11.9872 10.0868 12.0656 9.83334 12.0657 9.57487Z" fill="white"/>
<path d="M12.0657 9.57487C12.0659 9.32544 11.9932 9.08047 11.8551 8.86519C11.7171 8.64991 11.5186 8.47209 11.2802 8.35006C11.0417 8.22803 10.7719 8.16619 10.4986 8.17091C10.2252 8.17563 9.9582 8.24673 9.72499 8.37691C9.49178 8.50709 9.30082 8.69163 9.17178 8.91152C9.04274 9.13142 8.98028 9.37872 8.99083 9.62796C9.00139 9.8772 9.08457 10.1194 9.23182 10.3295C9.37907 10.5397 9.58507 10.7102 9.82859 10.8236V13.0189H11.2268V10.8236C11.4792 10.7062 11.6911 10.5275 11.8392 10.3071C11.9872 10.0868 12.0656 9.83334 12.0657 9.57487Z" fill="#2F2E41"/>
</g>
<defs>
<filter id="filter0_d_16_157" x="0" y="0" width="21.1429" height="24" filterUnits="userSpaceOnUse" color-interpolation-filters="sRGB">
<feFlood flood-opacity="0" result="BackgroundImageFix"/>
<feColorMatrix in="SourceAlpha" type="matrix" values="0 0 0 0 0 0 0 0 0 0 0 0 0 0 0 0 0 0 127 0" result="hardAlpha"/>
<feOffset dy="4"/>
<feGaussianBlur stdDeviation="2"/>
<feComposite in2="hardAlpha" operator="out"/>
<feColorMatrix type="matrix" values="0 0 0 0 0 0 0 0 0 0 0 0 0 0 0 0 0 0 0.25 0"/>
<feBlend mode="normal" in2="BackgroundImageFix" result="effect1_dropShadow_16_157"/>
<feBlend mode="normal" in="SourceGraphic" in2="effect1_dropShadow_16_157" result="shape"/>
</filter>
</defs>
</svg>
